<svg xmlns="http://www.w3.org/2000/svg" version="1.1" xmlns:xlink="http://www.w3.org/1999/xlink" width="900" height="900"><svg xmlns="http://www.w3.org/2000/svg" width="900" height="900" viewBox="0 0 900 900">
  <path d="m132.3 148.1-26-24.9 4.5-.6c6.1-.8 634.3-.8 661.1.1l21.2.6-7.3 7.5c-4 4.1-15.6 15.2-25.6 24.8L741.8 173H158.3z" fill="#A37E2C"></path>
  <g fill="#2B2B34">
    <path d="M436.3 877.3 422 866.8V451h-15.8l-.4 200.9c-.1 110.5-.6 201.3-1 201.6-.6.6-30.7-19.9-49.5-33.7l-5.3-3.9V462.4l-7-4.9c-3.9-2.6-7.3-4.5-7.6-4.3-.2.3-.8 79.1-1.3 175.2-.5 96.2-1.1 174.9-1.3 175.1-.4.4-35.4-24.2-40.6-28.5l-3.1-2.5-.3-162.5-.3-162.6 4.4-6.4c4.1-6.2 12-21.8 13.6-26.9l.7-2.4 141.8.6c91.9.3 142.5.9 143.7 1.5 1 .6 2.9 3.7 4.2 6.9 2.2 5.4 10.4 19.9 15 26.8 2.1 3 2.1 3.5 2.1 163.7v160.6l-14.2 10c-20.6 14.3-29.6 20.2-30.7 20.2-1.7 0-2.1-25.6-2.7-186-.3-87.7-.8-159.7-1.1-160-.2-.3-3.3 1-6.8 2.9l-6.3 3.4-.6 45.1c-.3 24.8-.9 103.2-1.2 174.1-.3 71-.9 130.8-1.3 133-.6 3.9-1.3 4.4-24.1 20.7-12.9 9.1-24.7 17.3-26.1 18.2l-2.6 1.5-.6-129.1c-.4-71-.7-161.9-.7-202V451h-16v416.8l-14 10.1c-7.7 5.5-14.1 10.1-14.3 10.1-.1-.1-6.6-4.8-14.4-10.7"></path>
    <path d="M184 462.2c-16-5.4-25.9-11.3-37.8-22.6-8.4-8-14.4-16-19.2-25.6-8-15.9-10.6-29.5-9.7-51.5.4-12.2.9-15.2 3.6-23.2 11.9-35.8 34.8-58.1 71.8-70.2l11.8-3.9 249 .5 249 .5 10.4 3.9c12.7 4.8 20.9 9.3 30.3 16.8 21.2 16.8 34 37.7 39.3 63.9 2.4 11.6 1.7 33.5-1.4 44.6-9.6 34.6-39 62.6-72.1 68.8-3.1.6-12.9.8-22.5.6-15-.4-17.9-.8-24.3-3.1-8.6-3-19.8-9.2-27.6-15.3-11.4-9-21.6-25.2-25.6-40.8-2.9-11.4-2.8-31.7.1-41.2 5.1-16.4 14.3-28.9 28.5-38.3 12.2-8.2 16.7-9.5 32.4-9.6 10.7 0 14.6.4 19 1.9 10.2 3.5 15.4 6.8 23 14.5 11.8 12 15.6 21.9 14.8 38.5-.7 13.1-3.3 19.3-11.9 27.9-9.2 9.2-12.7 10.7-25.8 10.7-8.6 0-11.2-.4-14.8-2.1-5.5-2.7-11.6-9.6-14.4-16.5l-2.3-5.4h-7.8c-9 0-8.8-.2-6.3 9.5 4.2 15.9 15.6 26.7 32.8 31.2 12.5 3.2 29.6.1 41.6-7.6 12.1-7.8 22.7-24 25.1-38.2 1.7-10.2.8-26.8-1.9-33.9-3.1-8.3-11.8-23.1-15.4-26.4-5.7-5.1-20.3-14.2-27-16.9-12.7-5.1-30.4-5.9-46.7-2.1-13.9 3.2-32.2 14.7-41.8 26.2-13.4 16-17.5 28-20 57.7l-.7 9h-278l-.8-10c-.5-5.5-1.7-14.4-2.7-19.9-4.5-23.5-21.3-45.5-43.2-56.4-13.5-6.7-16.8-7.4-32.9-8-12.5-.4-15.7-.1-23 1.7-21.5 5.4-36.3 17.7-46.4 38.5-5.2 10.6-6.5 16.5-6.5 29 0 16.9 5.6 30.4 17.4 42.2 11.1 11.1 23.5 16.4 38.6 16.4 22.1 0 39.7-13.3 45.1-34.1 1.9-7.2 1.2-7.9-7.5-7.9h-7.4l-1.8 5.2c-2.2 6.7-11.2 16.1-17 17.7-11.9 3.4-23.9 1.8-32.9-4.4-15.7-10.8-22-33.6-15-53.6 6.8-19.1 30.4-35 51.9-35 19.9.1 41.5 11.2 52.9 27.3 10.5 14.8 12.8 22.2 12.8 40.8.1 17.4-.7 21.2-7.7 35.8-5 10.6-6.1 12.1-15.6 21.6-11 10.9-17.8 15.2-32.1 20.3-6.6 2.4-8.7 2.7-26.2 3-18.7.3-19.2.3-27.5-2.5m182.4-86.4c-.4-1.3-3.8-9.7-7.6-18.8s-7.4-17.7-8-19.2c-1-2.8-1.1-2.8-9.9-2.8-8 0-8.9.2-8.9 1.8 0 2.2 13.4 35.6 15.6 39 1.3 2 2.2 2.2 10.5 2.2 8.9 0 9 0 8.3-2.2m62.6 1.7c0-.9-8-39-8.6-40.7-.5-1.5-1.8-1.8-9-1.8-7.8 0-8.4.1-8.4 2 0 2 5.8 28.9 8 37l1.1 4h8.4c4.7 0 8.5-.2 8.5-.5m60.6-.8c.8-.8 7.5-30.4 8.1-35.9l.6-5.8h-8.6c-7.3 0-8.6.3-9.1 1.8-.3.9-2.2 10.2-4.2 20.5-3.1 16-3.5 19-2.3 19.8 1.3.9 14.6.5 15.5-.4m58.1.7 6.1-.7 8.6-19.7c4.7-10.8 8.6-20.2 8.6-20.8 0-1.7-17.4-1.6-18.7.1-1.6 1.9-15.2 35.1-15.9 38.6-.6 2.9-.5 3.1 2.3 3.1 1.7 0 5.7-.3 9-.6M316.5 247l-93.1-.5-13.9-14.9c-31.8-34-37.5-40.1-37.5-40.8 0-.5 125.3-.8 278.5-.8s278.5.2 278.5.4c0 .8-20.4 23.3-36.3 40.3l-16.2 17.1-133.5-.1c-73.4-.1-175.4-.4-226.5-.7"></path>
  </g>
</svg><style>@media (prefers-color-scheme: light) { :root { filter: none; } }
@media (prefers-color-scheme: dark) { :root { filter: none; } }
</style></svg>